<svg width="43" height="43" viewBox="0 0 43 43" fill="none" xmlns="http://www.w3.org/2000/svg">
<circle cx="21.5" cy="21.5" r="20" fill="#E5DED8" stroke="white" stroke-width="3"/>
<path d="M14.2885 34.222C12.5273 34.222 11.0502 32.734 10.8521 30.7605C10.8385 30.624 10.9345 30.5015 11.0666 30.4874C11.1989 30.4733 11.3171 30.5725 11.3309 30.709C11.5031 32.4283 12.7746 33.7243 14.2884 33.7243C15.93 33.7243 17.2654 32.1955 17.2654 30.3161C17.2654 29.9788 17.4562 28.1734 21.2198 25.7622C23.7704 24.1279 25.233 21.629 25.233 18.9061C25.2329 14.7291 22.0944 11.3308 18.2365 11.3308C14.6486 11.3308 11.658 14.2398 11.2798 18.0974C11.2665 18.2335 11.1534 18.3389 11.0162 18.3196C10.884 18.3059 10.7876 18.1839 10.8011 18.0469C11.2044 13.9346 14.4008 10.833 18.2366 10.833C22.3599 10.833 25.7141 14.4545 25.7141 18.906C25.7141 21.8049 24.1683 24.4581 21.473 26.185C17.8511 28.5059 17.7465 30.1379 17.7465 30.3163C17.7466 32.4702 16.1952 34.222 14.2885 34.222V34.222Z" fill="black"/>
<path d="M15.4119 25.5531C15.279 25.5531 15.1714 25.4418 15.1714 25.3043C15.1714 25.1667 15.279 25.0555 15.4119 25.0555C16.4813 25.0555 17.3514 23.9299 17.3514 22.5469C17.3514 21.588 16.918 20.6992 16.2468 20.2833C15.5734 19.8654 15.1714 19.169 15.1714 18.4211V18.2685C15.1714 16.4009 16.628 14.8818 18.4188 14.8818C20.2096 14.8818 21.6663 16.401 21.6663 18.2685C21.6663 18.406 21.5587 18.5173 21.4257 18.5173C21.2928 18.5173 21.1852 18.406 21.1852 18.2685C21.1852 16.6754 19.9442 15.3793 18.4189 15.3793C16.8936 15.3793 15.6526 16.6754 15.6526 18.2685V18.4211C15.6526 18.9927 15.9674 19.5292 16.4945 19.8567C17.3198 20.3684 17.8326 21.3996 17.8326 22.547C17.8326 24.2048 16.7468 25.5533 15.4119 25.5533V25.5531Z" fill="black"/>
<line y1="-0.25" x2="5.34511" y2="-0.25" transform="matrix(0.748347 -0.663307 0.535824 0.844329 31 18.5459)" stroke="black" stroke-width="0.5"/>
<line y1="-0.25" x2="4.64616" y2="-0.25" transform="matrix(0.860927 0.508729 -0.38964 0.920967 31 25.6367)" stroke="black" stroke-width="0.5"/>
<path d="M31 21.7978L38.969 21.7979" stroke="black" stroke-width="0.5"/>
</svg>
