<svg width="43" height="43" viewBox="0 0 43 43" fill="none" xmlns="http://www.w3.org/2000/svg">
<circle cx="21.5" cy="21.5" r="20" fill="#E5DED8" stroke="white" stroke-width="3"/>
<path d="M16.4887 33.489H16.5887V33.4874C18.515 33.4275 20.0468 31.6433 20.0467 29.4832C20.0467 29.351 20.1221 27.7464 23.7272 25.4362C26.4476 23.6932 28.0143 21.0099 28.0143 18.073C28.0143 13.5736 24.6224 9.9 20.4368 9.9C16.5436 9.9 13.3095 13.0468 12.9017 17.2041C12.8833 17.3921 13.0151 17.5653 13.2043 17.5858C13.4062 17.6132 13.5616 17.4566 13.5795 17.2742L13.5795 17.2742C13.9533 13.4614 16.9064 10.5978 20.4367 10.5978C24.232 10.5978 27.3331 13.9437 27.3332 18.0731C27.3332 20.7576 25.8917 23.2266 23.3661 24.845C19.5843 27.2679 19.3656 29.1009 19.3656 29.4831C19.3656 31.3204 18.0627 32.7913 16.4886 32.7913C15.0365 32.7913 13.7987 31.5452 13.6306 29.8661L13.6306 29.8659C13.6115 29.6773 13.4466 29.5347 13.2563 29.555L13.2562 29.555C13.0663 29.5752 12.9341 29.7494 12.9528 29.9374L12.9528 29.9375C13.155 31.9522 14.6668 33.489 16.4887 33.489Z" fill="black" stroke="black" stroke-width="0.2"/>
<path d="M18.3943 19.5353L18.3944 19.5353C19.0294 19.9288 19.4515 20.781 19.4515 21.7139C19.4515 23.0671 18.6038 24.1224 17.6121 24.1224C17.4208 24.1224 17.2716 24.2817 17.2716 24.4713C17.2716 24.6262 17.3712 24.7609 17.5121 24.805V24.8203H17.6121C19.0214 24.8203 20.1328 23.4057 20.1328 21.714C20.1328 20.5394 19.6079 19.4722 18.7475 18.9387C18.2466 18.6276 17.9528 18.1216 17.9528 17.5881V17.4355C17.9528 15.8935 19.1531 14.6463 20.6191 14.6463C22.0851 14.6463 23.2854 15.8935 23.2854 17.4355C23.2854 17.6251 23.4346 17.7843 23.6259 17.7843C23.8173 17.7843 23.9665 17.6251 23.9665 17.4355C23.9665 15.5168 22.4689 13.9488 20.619 13.9488C18.7691 13.9488 17.2716 15.5167 17.2716 17.4355V17.5881C17.2716 18.373 17.6935 19.1004 18.3943 19.5353Z" fill="black" stroke="black" stroke-width="0.2"/>
<line y1="-0.4" x2="5.34511" y2="-0.4" transform="matrix(0.748347 -0.663307 0.535824 0.844329 30.2002 17.7129)" stroke="black" stroke-width="0.8"/>
<line y1="-0.4" x2="4.64616" y2="-0.4" transform="matrix(0.860927 0.508729 -0.38964 0.920967 30.2002 24.8037)" stroke="black" stroke-width="0.8"/>
<path d="M30.2002 20.9648L38.1692 20.9648" stroke="black" stroke-width="0.8"/>
</svg>
