<svg width="74" height="74" viewBox="0 0 74 74" fill="none" xmlns="http://www.w3.org/2000/svg">
<circle cx="37" cy="37" r="35.5" stroke="#5A5757" stroke-width="3"/>
<path d="M54 38.5C54.8284 38.5 55.5 37.8284 55.5 37C55.5 36.1716 54.8284 35.5 54 35.5V38.5ZM17.9393 35.9393C17.3536 36.5251 17.3536 37.4749 17.9393 38.0607L27.4853 47.6066C28.0711 48.1924 29.0208 48.1924 29.6066 47.6066C30.1924 47.0208 30.1924 46.0711 29.6066 45.4853L21.1213 37L29.6066 28.5147C30.1924 27.9289 30.1924 26.9792 29.6066 26.3934C29.0208 25.8076 28.0711 25.8076 27.4853 26.3934L17.9393 35.9393ZM54 35.5L19 35.5V38.5L54 38.5V35.5Z" fill="#5A5757"/>
</svg>
