<svg width="74" height="74" viewBox="0 0 74 74" fill="none" xmlns="http://www.w3.org/2000/svg">
<circle cx="37" cy="37" r="35.5" transform="matrix(-1 0 0 1 74 0)" stroke="#5A5757" stroke-width="3"/>
<path d="M20 38.5C19.1716 38.5 18.5 37.8284 18.5 37C18.5 36.1716 19.1716 35.5 20 35.5V38.5ZM56.0607 35.9393C56.6464 36.5251 56.6464 37.4749 56.0607 38.0607L46.5147 47.6066C45.9289 48.1924 44.9792 48.1924 44.3934 47.6066C43.8076 47.0208 43.8076 46.0711 44.3934 45.4853L52.8787 37L44.3934 28.5147C43.8076 27.9289 43.8076 26.9792 44.3934 26.3934C44.9792 25.8076 45.9289 25.8076 46.5147 26.3934L56.0607 35.9393ZM20 35.5L55 35.5V38.5L20 38.5V35.5Z" fill="#5A5757"/>
</svg>
