<svg width="43" height="43" viewBox="0 0 43 43" fill="none" xmlns="http://www.w3.org/2000/svg">
<circle cx="21.5" cy="21.5" r="20" fill="#E5DED8" stroke="white" stroke-width="3"/>
<path d="M20.1727 9.83301C17.8419 9.83301 15.9471 11.8543 15.9471 14.3405C15.9471 16.1649 16.9679 17.7338 18.4327 18.4421V23.8114L17.9123 22.7011C17.6139 22.0784 17.1158 21.444 16.5607 21.2842C16.0921 21.1465 15.6629 21.3244 15.3256 21.5328C14.898 21.8006 14.6186 22.1823 14.51 22.5686C14.3857 23.1099 14.4901 23.6552 14.7197 24.2506C15.8558 27.2261 17.5939 30.762 19.489 33.0752C19.5352 33.1319 19.605 33.1661 19.6754 33.1663H26.3867C26.44 33.1637 26.4927 33.1439 26.5343 33.1084C27.187 32.5926 27.7512 31.6634 28.2199 30.5397C28.6886 29.4161 29.0653 28.1042 29.2375 26.8275C29.4162 25.5019 29.4353 24.3163 29.1753 23.3392C28.9154 22.3621 28.3339 21.6148 27.412 21.4996C27.09 21.4967 26.8098 21.5208 26.5576 21.6737C26.472 21.2679 26.2978 20.9311 26.0526 20.7457C25.7349 20.5051 25.383 20.4347 25.136 20.4391C24.7926 20.4451 24.5157 20.6404 24.2738 20.9114C24.173 20.6189 24.0333 20.3742 23.8387 20.2236C23.5261 19.9814 23.1702 19.9088 22.9066 19.9088C22.5571 19.9088 22.205 20.0497 21.9122 20.2817V18.4423C23.3772 17.7339 24.3979 16.1651 24.3979 14.3407C24.3979 11.8544 22.5035 9.83301 20.1727 9.83301ZM20.1727 10.3633C22.2349 10.3633 23.9013 12.1409 23.9013 14.3407C23.9013 15.8666 23.0924 17.1866 21.9128 17.8538V15.4012C21.8912 14.1965 20.9809 13.5384 20.1729 13.5452C19.2132 13.5452 18.433 14.3776 18.433 15.4012V17.8538C17.2534 17.1865 16.4444 15.8665 16.4444 14.3407C16.4444 12.1409 18.1105 10.3633 20.1727 10.3633ZM20.1727 14.0754C20.8655 14.0754 21.4155 14.6621 21.4155 15.4011V20.9693C21.418 21.0882 21.5009 21.2015 21.6097 21.2262C21.7186 21.2508 21.8422 21.1846 21.8893 21.0771C22.0522 20.7158 22.5346 20.439 22.9069 20.439C23.0752 20.439 23.343 20.4906 23.5438 20.6463C23.7446 20.8018 23.9011 21.0416 23.9011 21.4997C23.8986 21.6199 23.9855 21.7379 24.0952 21.7649C24.2051 21.7918 24.3272 21.7248 24.3748 21.6158C24.6001 21.135 24.8119 20.9756 25.1516 20.9694C25.2798 20.9668 25.5554 21.0177 25.7652 21.1767C25.975 21.3355 26.1381 21.577 26.1381 22.0301C26.1405 22.2353 26.4178 22.3616 26.5576 22.2208C26.6058 22.1731 26.7382 22.1062 26.8994 22.0716C27.0605 22.0371 27.2446 22.0302 27.3809 22.0302C28.0696 22.1307 28.4692 22.636 28.6937 23.4803C28.9218 24.3383 28.9252 25.5195 28.748 26.745C28.5708 27.9704 28.2179 29.249 27.7692 30.3245C27.3321 31.3724 26.7925 32.208 26.2778 32.6363H19.7994C17.9951 30.4015 16.2931 26.9534 15.1853 24.0521C14.9496 23.4052 14.9093 22.9916 14.9833 22.7098C15.1087 22.3399 15.3442 22.125 15.5892 21.9807C15.868 21.811 16.1427 21.7145 16.4281 21.7984C17.0098 22.0998 17.222 22.4772 17.469 22.9502L18.4555 25.0632C18.5031 25.1722 18.6253 25.2392 18.7351 25.2123C18.8449 25.1855 18.9309 25.0673 18.9292 24.9471V15.4015C18.9292 14.6625 19.4799 14.0754 20.1727 14.0754Z" fill="black"/>
</svg>
