<svg width="43" height="43" viewBox="0 0 43 43" fill="none" xmlns="http://www.w3.org/2000/svg">
<circle cx="21.5" cy="21.5" r="20" fill="#E5DED8" stroke="white" stroke-width="3"/>
<path d="M19.3327 23.3625V18.5043C17.8629 17.7662 16.8471 16.1788 16.8471 14.3405C16.8471 11.8052 18.7807 9.73301 21.1727 9.73301C23.5647 9.73301 25.4979 11.8053 25.4979 14.3407C25.4979 16.179 24.4822 17.7663 23.0122 18.5045V20.0875C23.2843 19.9129 23.5945 19.8088 23.9066 19.8088C24.1868 19.8088 24.5659 19.8858 24.9 20.1446M19.3327 23.3625L24.8387 20.2236M19.3327 23.3625L19.0028 22.6586L19.0024 22.6579C18.8499 22.3396 18.6458 22.0169 18.407 21.7521C18.1693 21.4884 17.8909 21.2753 17.5887 21.1882C17.0787 21.0384 16.618 21.2345 16.273 21.4478L16.2725 21.4481C15.8257 21.7279 15.5296 22.1293 15.4137 22.5415L15.4136 22.5415L15.4125 22.5462C15.2819 23.1153 15.3934 23.6824 15.6263 24.2865C16.7641 27.2661 18.5066 30.8131 20.4115 33.1384L19.3327 23.3625ZM24.9 20.1446L24.8387 20.2236M24.9 20.1446C24.8999 20.1445 24.8999 20.1445 24.8999 20.1445L24.8387 20.2236M24.9 20.1446C25.0795 20.2836 25.2119 20.4898 25.311 20.7275M24.8387 20.2236C25.0093 20.3557 25.1378 20.5601 25.2348 20.8057C25.2597 20.7789 25.2851 20.7528 25.311 20.7275M25.311 20.7275C25.5379 20.5061 25.8057 20.3449 26.1343 20.3391M25.311 20.7275C25.3249 20.7608 25.3381 20.7947 25.3507 20.8292C25.5742 20.6017 25.8284 20.4445 26.136 20.4391M26.1343 20.3391C26.1343 20.3391 26.1343 20.3391 26.1343 20.3391L26.136 20.4391M26.1343 20.3391C26.3998 20.3344 26.7746 20.4097 27.113 20.6659M26.1343 20.3391L26.136 20.4391M26.136 20.4391L27.113 20.6659M27.113 20.6659C27.113 20.6659 27.113 20.6659 27.113 20.6659L27.0526 20.7457L27.113 20.6659ZM22.3155 20.9693H22.3155V15.4011C22.3155 14.7112 21.8043 14.1754 21.1727 14.1754C20.5411 14.1754 20.0292 14.7116 20.0292 15.4015V24.9465V24.9471H19.9292C19.9309 25.0673 19.8449 25.1855 19.7351 25.2123L22.3155 20.9693ZM22.3155 20.9693L22.3156 20.9714M22.3155 20.9693L22.3156 20.9714M22.3156 20.9714C22.3188 21.1289 22.4272 21.2874 22.5876 21.3237L22.5876 21.3237M22.3156 20.9714L22.5876 21.3237M22.5876 21.3237C22.7469 21.3598 22.9158 21.2653 22.9806 21.1177M22.5876 21.3237L24.8011 21.4988M24.5438 20.6463C24.343 20.4906 24.0752 20.439 23.9069 20.439C23.5346 20.439 23.0522 20.7158 22.8893 21.0771M24.5438 20.6463L22.4155 20.9693C22.418 21.0882 22.5009 21.2015 22.6097 21.2262C22.7186 21.2508 22.8422 21.1846 22.8893 21.0771M24.5438 20.6463C24.7446 20.8018 24.9011 21.0416 24.9011 21.4997M24.5438 20.6463L24.9011 21.4997M22.8893 21.0771L22.9804 21.1182C22.9805 21.118 22.9806 21.1179 22.9806 21.1177M22.8893 21.0771L22.9809 21.1171C22.9808 21.1173 22.9807 21.1175 22.9806 21.1177M22.9806 21.1177C23.0516 20.9607 23.196 20.8151 23.3716 20.708C23.5474 20.6007 23.7433 20.5391 23.9069 20.5391C24.0607 20.5391 24.3045 20.5873 24.4825 20.7253L24.4825 20.7253C24.5726 20.7951 24.6508 20.882 24.7072 21.0021C24.7638 21.1225 24.801 21.2816 24.8011 21.4988M24.8011 21.4988C24.8011 21.4991 24.8011 21.4994 24.8011 21.4997H24.9011M24.8011 21.4988C24.7983 21.6616 24.9129 21.8231 25.0713 21.862L25.0714 21.8621C25.2337 21.9017 25.4008 21.8044 25.4658 21.6571M24.9011 21.4997C24.8986 21.6199 24.9855 21.7379 25.0952 21.7649C25.2051 21.7918 25.3272 21.7248 25.3748 21.6158M25.3748 21.6158L25.4653 21.6582C25.4655 21.6579 25.4657 21.6575 25.4658 21.6571M25.3748 21.6158L25.4664 21.6558C25.4662 21.6562 25.466 21.6567 25.4658 21.6571M25.3748 21.6158C25.6001 21.135 25.8119 20.9756 26.1516 20.9694L25.4658 21.6571M27.6492 21.6242C27.6183 21.639 27.5877 21.6554 27.5576 21.6737C27.5503 21.6392 27.5424 21.6051 27.5338 21.5717C27.5639 21.5546 27.5944 21.5391 27.6251 21.5252C27.6337 21.5578 27.6418 21.5908 27.6492 21.6242ZM27.5977 33.1858C27.5982 33.1853 27.5987 33.1849 27.5992 33.1845L27.5343 33.1084L27.5963 33.1868C27.5968 33.1865 27.5972 33.1861 27.5977 33.1858ZM23.0122 20.2076C22.9782 20.2311 22.9449 20.2559 22.9122 20.2817V20.156L23.0122 20.2076ZM19.333 15.4012V17.6775C18.2665 17.004 17.5444 15.7655 17.5444 14.3407C17.5444 12.19 19.1717 10.4633 21.1727 10.4633C23.1737 10.4633 24.8013 12.1899 24.8013 14.3407C24.8013 15.7656 24.0793 17.0041 23.0128 17.6775V15.4012H23.0128L23.0128 15.3995C22.9902 14.1376 22.0327 13.4382 21.1725 13.4452C20.1518 13.4455 19.333 14.3287 19.333 15.4012ZM27.9203 22.1694C28.0682 22.1377 28.2402 22.1305 28.3736 22.1303L27.8994 22.0716L27.9203 22.1694Z" fill="black" stroke="black" stroke-width="0.2"/>
</svg>
