<svg width="55" height="51" viewBox="0 0 55 51" fill="none" xmlns="http://www.w3.org/2000/svg">
<g clip-path="url(#clip0_178_4244)">
<path d="M21.0253 9.19922V12.0767C19.1532 11.3886 17.1457 11.0341 15.1383 11.0341C11.1008 11.0341 7.06329 12.452 3.97314 15.3086L11.4842 22.2521H13.9879V24.5666C15.9277 26.3598 18.454 27.2981 21.0028 27.4023V32.1356H14.2586V38.3909C14.2586 40.6846 16.2886 42.5612 18.7697 42.5612H41.3255C45.0698 42.5612 48.0923 39.7671 48.0923 36.3058V9.19922H21.0253ZM18.5216 22.5648V18.0818H13.3789L11.0331 15.9133C12.3188 15.4546 13.7172 15.2044 15.1383 15.2044C18.1607 15.2044 20.9802 16.2886 23.123 18.2486L26.3034 21.1887L25.8523 21.6057C24.7019 22.6691 23.1681 23.2738 21.5215 23.2738C20.4614 23.2738 19.4239 23.0236 18.5216 22.5648ZM43.5811 36.3058C43.5811 37.4526 42.5661 38.3909 41.3255 38.3909C40.085 38.3909 39.07 37.4526 39.07 36.3058V32.1356H25.5365V26.7351C26.8222 26.2555 28.0176 25.5466 29.0552 24.5874L29.5063 24.1704L35.8896 30.0504H39.07V27.1104L25.5365 14.6622V13.3695H43.5811V36.3058Z" fill="#5A5757"/>
</g>
<defs>
<clipPath id="clip0_178_4244">
<rect width="54.1339" height="50.0429" fill="white" transform="translate(0.725098 0.858887)"/>
</clipPath>
</defs>
</svg>
