<svg width="48" height="48" viewBox="0 0 48 48" fill="none" xmlns="http://www.w3.org/2000/svg">
<g clip-path="url(#clip0_112_2005)">
<path d="M18 8V10.76C16.34 10.1 14.56 9.76 12.78 9.76C9.2 9.76 5.62 11.12 2.88 13.86L9.54 20.52H11.76V22.74C13.48 24.46 15.72 25.36 17.98 25.46V30H12V36C12 38.2 13.8 40 16 40H36C39.32 40 42 37.32 42 34V8H18ZM15.78 20.82V16.52H11.22L9.14001 14.44C10.28 14 11.52 13.76 12.78 13.76C15.46 13.76 17.96 14.8 19.86 16.68L22.68 19.5L22.28 19.9C21.26 20.92 19.9 21.5 18.44 21.5C17.5 21.5 16.58 21.26 15.78 20.82ZM38 34C38 35.1 37.1 36 36 36C34.9 36 34 35.1 34 34V30H22V24.82C23.14 24.36 24.2 23.68 25.12 22.76L25.52 22.36L31.18 28H34V25.18L22 13.24V12H38V34Z" fill="black"/>
</g>
<defs>
<clipPath id="clip0_112_2005">
<rect width="48" height="48" fill="white"/>
</clipPath>
</defs>
</svg>
