<svg width="43" height="43" viewBox="0 0 43 43" fill="none" xmlns="http://www.w3.org/2000/svg">
<circle cx="21.5" cy="21.5" r="20" fill="#E5DED8" stroke="white" stroke-width="3"/>
<path d="M27.2991 29.0998L27.2057 29.0997L19.7165 29.0916L19.709 29.0916L19.7016 29.0905C19.5982 29.0748 18.6377 28.8604 17.7171 27.8477L27.2991 29.0998ZM27.2991 29.0998L27.3055 29.0066L27.8139 21.6396L27.8142 21.6397V21.6328C27.8142 20.8568 27.2988 20.1881 26.6237 20.1881C26.4437 20.1881 26.274 20.2363 26.1224 20.3218V20.2531C26.1224 19.5541 25.5229 18.9946 24.7972 18.9946H24.6162C24.3847 18.9946 24.167 19.0513 23.9773 19.1507C23.9325 18.4069 23.3645 17.8025 22.6554 17.8025H22.1005C21.8699 17.8025 21.6532 17.867 21.4648 17.9793V13.6776C21.4648 12.89 20.8787 12.233 20.1396 12.233H19.9847C19.2451 12.233 18.6594 12.89 18.6594 13.6776L18.6596 23.8251L17.2416 22.2702L27.2991 29.0998ZM14.3609 23.4515C14.3902 23.9454 14.5906 24.4185 14.9245 24.7844L17.717 27.8476L17.2416 22.2701C16.5701 21.532 15.4196 21.4465 14.7961 22.1291L14.7961 22.1291C14.4826 22.4725 14.3302 22.944 14.3609 23.4515ZM14.3609 23.4515C14.3609 23.4515 14.3609 23.4515 14.3609 23.4515L14.4607 23.4455L14.3609 23.4514C14.3609 23.4514 14.3609 23.4514 14.3609 23.4515ZM15.2164 22.5767L15.2903 22.644C15.1196 22.8317 15.0313 23.0992 15.0496 23.4047C15.0688 23.7218 15.1995 24.0292 15.4187 24.2702L15.2164 22.5767ZM15.2164 22.5767L15.2903 22.6441C15.4446 22.4748 15.6605 22.381 15.9011 22.381C16.2016 22.381 16.5111 22.5246 16.7466 22.7843L16.7468 22.7845L19.1753 25.448L19.3492 25.6387V25.3806V13.6776C19.3492 13.2792 19.6428 12.9706 19.9843 12.9706H20.1392C20.4808 12.9706 20.7744 13.2791 20.7744 13.6776L20.7742 19.2453L20.7742 19.3453H20.8742H21.3643H21.4643V19.2453C21.4643 18.8476 21.7577 18.5398 22.1 18.5398H22.6549C22.9965 18.5398 23.2895 18.8476 23.2895 19.2453V20.2546V20.3546H23.3895H23.8796H23.9796V20.2546C23.9796 19.9885 24.2553 19.7336 24.6157 19.7336H24.7967C25.1564 19.7336 25.4318 19.9884 25.4318 20.2546V21.6342V21.7342H25.5318H26.0219H26.1219V21.6342C26.1219 21.431 26.1835 21.2507 26.2783 21.1235C26.3731 20.9962 26.4962 20.9272 26.6232 20.9272C26.7498 20.9272 26.8729 20.9963 26.9678 21.1216C27.0621 21.2459 27.1231 21.4197 27.1241 21.6104L26.6579 28.3628L19.7751 28.3596C19.6948 28.3393 18.9379 28.1327 18.2114 27.3337L18.2113 27.3336L15.4188 24.2703L15.3448 24.3376C15.1106 24.0801 14.9704 23.7511 14.9498 23.4107C14.9301 23.0827 15.0248 22.7875 15.2164 22.5767Z" fill="black" stroke="black" stroke-width="0.2"/>
<path d="M22.0741 8.86958L22 8.82748L21.9259 8.86958L10.9259 15.1196L10.85 15.1627V15.25V27.7495V27.8368L10.9259 27.88L21.9259 34.1304L22 34.1725L22.0741 34.1304L33.0741 27.8804L33.15 27.8373V27.75V15.25V15.1627L33.0741 15.1196L22.0741 8.86958ZM11.4324 27.5025V15.9595L18.927 20.1311L19.15 20.2552V20V19.5V19.4115L19.0726 19.3687L11.7475 15.3195L22.0001 9.49384L32.2606 15.324L25.4236 19.3709L25.2909 19.4495L25.3731 19.5799L25.6552 20.0279L25.7335 20.1521L25.8594 20.0765L32.5679 16.0463V27.503L22.2913 33.342V29V28.85H22.1413H21.859H21.709V29V33.342L11.4324 27.5025Z" fill="black" stroke="black" stroke-width="0.3"/>
</svg>
