<svg width="43" height="43" viewBox="0 0 43 43" fill="none" xmlns="http://www.w3.org/2000/svg">
<circle cx="21.5" cy="21.5" r="20" fill="#E5DED8" stroke="white" stroke-width="3"/>
<path d="M27.2058 28.9997L19.7166 28.9916C19.6312 28.9787 18.6933 28.7729 17.791 27.7804L14.9984 24.7169C14.6798 24.368 14.4887 23.9164 14.4607 23.4455C14.4314 22.9615 14.5769 22.5175 14.87 22.1966C15.4459 21.566 16.5276 21.6338 17.1677 22.3375L18.7596 24.0832L18.7594 13.6776C18.7594 12.9363 19.3089 12.333 19.9847 12.333H20.1396C20.8149 12.333 21.3648 12.9363 21.3648 13.6776V18.1719C21.5697 18.003 21.8246 17.9025 22.1005 17.9025H22.6554C23.3307 17.9025 23.8801 18.5053 23.8801 19.2456V19.3273C24.0855 19.1815 24.3399 19.0946 24.6162 19.0946H24.7972C25.473 19.0946 26.0224 19.6145 26.0224 20.2531V20.5113C26.1949 20.3699 26.4013 20.2881 26.6237 20.2881C27.225 20.2881 27.7142 20.8914 27.7142 21.6328L27.2058 28.9997ZM15.9011 22.281C15.6336 22.281 15.3904 22.3858 15.2164 22.5767C15.0248 22.7875 14.9301 23.0827 14.9498 23.4107C14.9704 23.7511 15.1106 24.0801 15.3448 24.3376L18.1374 27.401C18.9274 28.2698 19.7552 28.4581 19.7635 28.4596L26.7512 28.4628L27.2241 21.6137C27.2236 21.189 26.954 20.8272 26.6232 20.8272C26.2914 20.8272 26.0219 21.1889 26.0219 21.6342H25.5318V20.2546C25.5318 19.918 25.1952 19.6336 24.7967 19.6336H24.6157C24.2167 19.6336 23.8796 19.918 23.8796 20.2546H23.3895V19.2453C23.3895 18.8013 23.0603 18.4398 22.6549 18.4398H22.1C21.6941 18.4398 21.3643 18.8011 21.3643 19.2453H20.8742L20.8744 13.6776C20.8744 13.2329 20.5446 12.8706 20.1392 12.8706H19.9843C19.5789 12.8706 19.2492 13.233 19.2492 13.6776V25.3806L16.8207 22.7171C16.5688 22.4394 16.2335 22.281 15.9011 22.281Z" fill="black"/>
<path d="M21.9144 9L9.48584 15.25V27.7495L21.9144 34L34.343 27.75V15.25L21.9144 9ZM21.8787 33.662H21.9501L21.9144 33.6801L21.8787 33.662ZM34.0242 27.5903L22.074 33.5998L22.074 29H21.7551L21.7551 33.5998L9.80492 27.5898V15.5519L18.8466 19.9191L18.8466 19.6442L9.98379 15.3213L21.9146 9.32132L33.8454 15.3213L25.643 19.4167V19.8333L34.0242 15.5521V27.5903Z" fill="black" stroke="black" stroke-width="0.2"/>
</svg>
