<svg width="43" height="43" viewBox="0 0 43 43" fill="none" xmlns="http://www.w3.org/2000/svg">
<circle cx="21.5" cy="21.5" r="20" fill="#E5DED8" stroke="white" stroke-width="3"/>
<path d="M15.1716 24.8131C15.1716 24.9898 15.3119 25.1704 15.5275 25.1704C15.7047 25.1704 15.8834 25.0286 15.8834 24.8131C15.8834 23.6517 14.9436 22.7057 13.7875 22.7057C12.6313 22.7057 11.6915 23.6517 11.6915 24.8131C11.6915 24.9898 11.8317 25.1704 12.0474 25.1704C12.1471 25.1704 12.2378 25.1366 12.3038 25.0702C12.3698 25.0038 12.4033 24.9128 12.4033 24.8131C12.4033 24.0443 13.0243 23.4204 13.7875 23.4204C14.5506 23.4204 15.1716 24.0442 15.1716 24.8131Z" fill="black" stroke="black" stroke-width="0.2"/>
<path d="M23.3551 24.8131V24.8131C23.355 23.6517 22.4152 22.7057 21.2591 22.7057C20.103 22.7057 19.1632 23.6517 19.1632 24.8131C19.1632 24.9898 19.3034 25.1704 19.5191 25.1704C19.6187 25.1704 19.7095 25.1366 19.7755 25.0702C19.8415 25.0038 19.875 24.9128 19.875 24.8131C19.875 24.0443 20.496 23.4204 21.2591 23.4204C22.0222 23.4204 22.6433 24.0442 22.6433 24.8131C22.6433 24.9898 22.7836 25.1704 22.9992 25.1704C23.1763 25.1704 23.3551 25.0286 23.3551 24.8131Z" fill="black" stroke="black" stroke-width="0.2"/>
<path d="M21.641 29.6763V29.6681L21.6396 29.66C21.624 29.5653 21.5836 29.4796 21.5167 29.4168C21.449 29.3532 21.36 29.3189 21.2596 29.3189H21.2595H13.7876C13.6105 29.3189 13.4317 29.4608 13.4317 29.6763V30.6285C13.4317 32.4584 14.9084 33.9712 16.7559 33.9712H18.3168C20.1377 33.9712 21.641 32.4852 21.641 30.6285V29.6763ZM20.9292 30.6285C20.9292 32.0665 19.7451 33.2565 18.3168 33.2565H16.7559C15.3275 33.2565 14.1435 32.0664 14.1435 30.6285V30.0337H20.9292L20.9292 30.6285Z" fill="black" stroke="black" stroke-width="0.2"/>
<path d="M17.9046 20.4919H18.1277C18.2632 20.4662 18.42 20.4662 18.5418 20.4662H18.5467C18.6187 20.4662 18.6913 20.4602 18.7687 20.4537L18.7707 20.4536C18.8462 20.4472 18.9264 20.4405 19.0074 20.4405C19.0659 20.4405 19.1315 20.4346 19.203 20.4281L19.2055 20.4278C19.2717 20.4218 19.343 20.4153 19.4095 20.4148C19.4959 20.4027 19.5763 20.3962 19.6507 20.3903L19.6615 20.3894C19.7418 20.3829 19.8145 20.3768 19.8864 20.3647L19.8946 20.3634H19.903C19.959 20.3634 20.0156 20.3579 20.0809 20.3517L20.0886 20.351C20.1534 20.3448 20.2252 20.3381 20.3039 20.3377C20.3791 20.3252 20.46 20.3126 20.5402 20.3002L20.5425 20.2999C20.625 20.2871 20.7067 20.2745 20.782 20.2619L20.7902 20.2605H20.7986C20.9409 20.2605 21.0599 20.2368 21.1883 20.211L21.1937 20.2099L21.1937 20.2101C21.2784 20.1979 21.3575 20.1796 21.4412 20.1602L21.4429 20.1598C21.5242 20.1409 21.61 20.121 21.7027 20.1075L22.0799 20.0316C22.1714 20.0055 22.2623 19.9859 22.3497 19.9671L22.3512 19.9667C22.4412 19.9473 22.5275 19.9287 22.6133 19.904L22.6164 19.9031L22.6165 19.9032C22.6692 19.8899 22.7282 19.8767 22.7854 19.8639L22.7859 19.8638C22.8436 19.8509 22.8997 19.8384 22.9492 19.8259C23.0483 19.801 23.1478 19.7698 23.2507 19.7375L23.2521 19.737C23.3523 19.7055 23.4557 19.673 23.5596 19.6468C23.5995 19.6335 23.6448 19.6205 23.6875 19.6082L23.6881 19.608L17.9046 20.4919ZM17.9046 20.4919L17.9047 13.7292C22.4479 15.173 27.1142 15.1722 31.804 13.7279L17.9046 20.4919ZM32.4173 13.0519L32.4354 13.0299L32.3436 12.9684C32.2413 12.8999 32.1381 12.8999 32.0636 12.9L32.0576 12.9H32.0415L32.0261 12.9051C27.1587 14.5198 22.3194 14.5194 17.6583 12.9055L17.6425 12.9H17.6256L17.6229 12.9C17.5861 12.9 17.5349 12.9 17.4856 12.9076C17.4394 12.9147 17.3794 12.9307 17.3322 12.9735C17.2258 13.0487 17.1929 13.1596 17.1929 13.2574V20.5164C14.9077 20.4809 12.5995 20.0963 10.3659 19.3139L10.3659 19.3138L10.3646 19.3134C10.2658 19.2803 10.1553 19.2783 10.0469 19.3509L10.0469 19.3509C9.93459 19.4261 9.90014 19.5398 9.90014 19.6399V28.5698C9.8744 32.8201 13.3225 36.2622 17.5232 36.2622C21.2549 36.2622 24.4499 33.5393 25.0551 29.8777C29.1655 29.7554 32.4646 26.3568 32.4646 22.1877V13.2714C32.4801 13.2087 32.4672 13.1502 32.4462 13.1036C32.4378 13.0852 32.428 13.0679 32.4173 13.0519ZM17.5233 35.5473H17.5046C13.6795 35.5372 10.5864 32.4209 10.5864 28.5701V20.1124C12.8836 20.8583 15.2288 21.2067 17.5489 21.2067C19.8456 21.2067 22.1661 20.833 24.4858 20.1106V28.5701C24.4858 28.8732 24.4607 29.1772 24.4352 29.4859C23.9801 32.935 21.0035 35.5473 17.5233 35.5473ZM24.2615 19.4286C24.1148 19.4735 23.9666 19.5189 23.8119 19.5707L31.7785 22.0868V22.1876C31.7785 25.9339 28.8309 29.0065 25.1463 29.1614V29.1362V29.0075C25.1463 28.9355 25.1523 28.869 25.1587 28.7978L25.1589 28.7962C25.1652 28.7263 25.1719 28.6518 25.1719 28.5701V26.7142H28.552C28.7291 26.7142 28.9079 26.5723 28.9079 26.3568V26.1767C28.9079 24.0196 27.253 22.2721 25.1719 22.0948V19.6398C25.1719 19.5229 25.0982 19.4215 25.0405 19.3634C25.0138 19.3366 24.9866 19.324 24.9653 19.3154C24.9593 19.313 24.9541 19.311 24.9492 19.3092C24.9369 19.3044 24.9269 19.3006 24.912 19.2931L24.8909 19.2825H24.8672H24.8416H24.816H24.7392H24.7229L24.7074 19.2877C24.5554 19.3387 24.4095 19.3833 24.2622 19.4284L24.2615 19.4286ZM25.1719 25.9994V22.7857C26.8274 22.9568 28.1204 24.3081 28.1932 25.9994H25.1719Z" fill="black" stroke="black" stroke-width="0.2"/>
<path d="M28.5775 18.7622C29.7336 18.7622 30.6735 17.8162 30.6735 16.6548C30.6735 16.4781 30.5332 16.2975 30.3176 16.2975C30.1404 16.2975 29.9617 16.4393 29.9617 16.6548C29.9617 17.4236 29.3406 18.0475 28.5775 18.0475C27.8145 18.0475 27.1933 17.4237 27.1933 16.6548C27.1933 16.4781 27.0531 16.2975 26.8374 16.2975C26.6603 16.2975 26.4815 16.4393 26.4815 16.6548C26.4815 17.8162 27.4214 18.7622 28.5775 18.7622Z" fill="black" stroke="black" stroke-width="0.2"/>
<path d="M22.8195 16.3229C22.6424 16.3229 22.4636 16.4647 22.4636 16.6802C22.4636 17.449 21.8426 18.0729 21.0795 18.0729C20.3164 18.0729 19.6953 17.4491 19.6953 16.6802C19.6953 16.5035 19.555 16.3229 19.3394 16.3229C19.2397 16.3229 19.149 16.3567 19.083 16.4231C19.017 16.4895 18.9835 16.5804 18.9835 16.6802C18.9835 17.8416 19.9233 18.7876 21.0795 18.7876C22.2356 18.7876 23.1754 17.8416 23.1754 16.6802C23.1754 16.5804 23.1419 16.4894 23.0759 16.4231C23.0099 16.3567 22.9192 16.3229 22.8195 16.3229Z" fill="black" stroke="black" stroke-width="0.2"/>
</svg>
