<svg width="43" height="43" viewBox="0 0 43 43" fill="none" xmlns="http://www.w3.org/2000/svg">
<circle cx="21.5" cy="21.5" r="20" fill="#E5DED8" stroke="white" stroke-width="3"/>
<path d="M15.5861 22.6461C15.5861 22.7748 15.6885 22.9035 15.842 22.9035C15.9699 22.9035 16.0979 22.8005 16.0979 22.6461C16.0979 21.5394 15.2023 20.6387 14.1019 20.6387C13.0016 20.6387 12.106 21.5394 12.106 22.6461C12.106 22.7748 12.2083 22.9035 12.3618 22.9035C12.5154 22.9035 12.6177 22.8005 12.6177 22.6461C12.6177 21.8226 13.283 21.1534 14.1019 21.1534C14.9208 21.1534 15.5861 21.8225 15.5861 22.6461Z" fill="black"/>
<path d="M21.5736 20.6387C20.4732 20.6387 19.5776 21.5394 19.5776 22.6461C19.5776 22.7748 19.68 22.9035 19.8335 22.9035C19.987 22.9035 20.0894 22.8005 20.0894 22.6461C20.0894 21.8226 20.7547 21.1534 21.5736 21.1534C22.3924 21.1534 23.0578 21.8225 23.0578 22.6461C23.0578 22.7748 23.1601 22.9035 23.3137 22.9035C23.4416 22.9035 23.5695 22.8005 23.5695 22.6461C23.5695 21.5394 22.6739 20.6387 21.5736 20.6387Z" fill="black"/>
<path d="M21.574 27.252H14.1021C13.9741 27.252 13.8462 27.3549 13.8462 27.5093V28.4615C13.8462 30.2373 15.2791 31.7042 17.0704 31.7042H18.6312C20.3969 31.7042 21.8554 30.263 21.8554 28.4615V27.5093C21.8299 27.3548 21.7275 27.252 21.574 27.252H21.574ZM21.3436 28.4615C21.3436 29.9542 20.1153 31.1895 18.6312 31.1895H17.0704C15.5862 31.1895 14.358 29.9541 14.358 28.4615V27.7667H21.3437L21.3436 28.4615Z" fill="black"/>
<path d="M32.6024 10.8844C32.5256 10.833 32.4489 10.833 32.3721 10.833C27.4846 12.4544 22.6228 12.4544 17.9401 10.833C17.8634 10.833 17.761 10.833 17.7098 10.8844C17.633 10.9359 17.6074 11.0131 17.6074 11.0904V18.4508C15.2788 18.4251 12.9247 18.039 10.6473 17.2412C10.5705 17.2155 10.4938 17.2155 10.417 17.267C10.3402 17.3184 10.3146 17.3956 10.3146 17.4729V26.4032C10.289 30.5981 13.6923 33.9952 17.8376 33.9952C21.548 33.9952 24.721 31.2672 25.2839 27.6127C29.3781 27.5355 32.679 24.1642 32.679 20.0207V11.0904C32.7047 11.0132 32.6535 10.936 32.6023 10.8845L32.6024 10.8844ZM17.8377 33.4804C13.9483 33.4804 10.8009 30.3149 10.8009 26.4031V17.8073C13.1294 18.5794 15.5092 18.9397 17.8633 18.9397C20.1919 18.9397 22.5461 18.5537 24.9002 17.8073V26.4031C24.9002 26.7118 24.8746 27.0207 24.8491 27.3295C24.3885 30.8296 21.369 33.4804 17.8378 33.4804L17.8377 33.4804ZM25.3864 20.5096C27.1776 20.6383 28.585 22.1052 28.6106 23.9324H25.3864V20.5096ZM32.193 20.0206C32.193 23.8552 29.1479 26.995 25.3608 27.0979V26.9692V26.8405C25.3608 26.6861 25.3864 26.5575 25.3864 26.4031V24.4472H28.8664C28.9944 24.4472 29.1223 24.3442 29.1223 24.1898V24.0097C29.1223 21.8736 27.4591 20.1494 25.3864 20.0207V17.4729C25.3864 17.3956 25.3352 17.3185 25.284 17.2669C25.2584 17.2412 25.2329 17.2412 25.1816 17.2155H25.1561H25.1305H25.0537C24.7467 17.3185 24.4651 17.3956 24.1581 17.4986C24.0813 17.5243 23.979 17.55 23.9022 17.5758C23.6975 17.6272 23.4928 17.7045 23.2881 17.7559C23.1857 17.7816 23.0577 17.8074 22.9554 17.8332C22.7763 17.8846 22.5971 17.9104 22.418 17.9618C22.2901 17.9876 22.1621 18.0133 22.0342 18.0391C21.8551 18.0648 21.7015 18.1163 21.5224 18.142C21.3945 18.1678 21.2665 18.1935 21.113 18.1935C20.9595 18.2192 20.7803 18.2449 20.6268 18.2707C20.4733 18.2706 20.3454 18.2964 20.2174 18.2964C20.0639 18.3221 19.9104 18.3221 19.7312 18.3478C19.6033 18.3478 19.4498 18.3735 19.3218 18.3735C19.1683 18.3735 19.0148 18.3992 18.8612 18.3992C18.7332 18.3992 18.5797 18.3992 18.4518 18.425H18.1191L18.1192 11.4251C22.7251 12.9178 27.459 12.9178 32.2185 11.4251V20.0208L32.193 20.0206Z" fill="black"/>
<path d="M28.892 16.4953C29.9923 16.4953 30.8879 15.5945 30.8879 14.4878C30.8879 14.3591 30.7855 14.2305 30.632 14.2305C30.5041 14.2305 30.3761 14.3334 30.3761 14.4878C30.3761 15.3113 29.7109 15.9805 28.892 15.9805C28.0732 15.9805 27.4078 15.3114 27.4078 14.4878C27.4078 14.3591 27.3054 14.2305 27.1519 14.2305C27.0239 14.2305 26.896 14.3334 26.896 14.4878C26.896 15.5945 27.7916 16.4953 28.892 16.4953Z" fill="black"/>
<path d="M23.134 14.2559C23.006 14.2559 22.8781 14.3588 22.8781 14.5132C22.8781 15.3367 22.2128 16.0059 21.3939 16.0059C20.5751 16.0059 19.9097 15.3368 19.9097 14.5132C19.9097 14.3845 19.8074 14.2559 19.6538 14.2559C19.5003 14.2559 19.3979 14.3588 19.3979 14.5132C19.3979 15.6199 20.2936 16.5206 21.3939 16.5206C22.4943 16.5206 23.3899 15.6199 23.3899 14.5132C23.3899 14.3587 23.2875 14.2559 23.134 14.2559Z" fill="black"/>
</svg>
