<svg width="43" height="43" viewBox="0 0 43 43" fill="none" xmlns="http://www.w3.org/2000/svg">
<circle cx="21.5" cy="21.5" r="20" fill="#E5DED8" stroke="white" stroke-width="3"/>
<mask id="path-2-inside-1_234_302" fill="white">
<path d="M21.5 29C25.6286 29 29.3322 27.0135 31.7119 25.3468C34.2817 23.5473 35.8587 21.7747 35.9246 21.7001C36.0251 21.5862 36.0251 21.4138 35.9246 21.2999C35.8586 21.2254 34.2817 19.4527 31.7119 17.6532C29.3321 15.9866 25.6286 14 21.5 14C17.3714 14 13.6678 15.9865 11.2881 17.6532C8.71835 19.4527 7.14135 21.2253 7.07544 21.2999C6.97486 21.4139 6.97486 21.5862 7.07544 21.7001C7.14126 21.7746 8.71832 23.5473 11.2881 25.3468C13.668 27.0134 17.3714 29 21.5 29ZM35.2985 21.5001C34.8104 22.0157 33.3867 23.4469 31.3636 24.8616C29.0557 26.4758 25.4711 28.3999 21.5 28.3999C17.5289 28.3999 13.9443 26.4758 11.6367 24.8616C9.61358 23.4467 8.19003 22.0155 7.70172 21.5001C8.1899 20.9847 9.61369 19.5534 11.6367 18.1384C13.9445 16.5243 17.5292 14.6001 21.5 14.6001C25.4708 14.6001 29.0557 16.5242 31.3636 18.1384C33.3867 19.5532 34.8102 20.9846 35.2985 21.4999V21.5001Z"/>
</mask>
<path d="M21.5 29C25.6286 29 29.3322 27.0135 31.7119 25.3468C34.2817 23.5473 35.8587 21.7747 35.9246 21.7001C36.0251 21.5862 36.0251 21.4138 35.9246 21.2999C35.8586 21.2254 34.2817 19.4527 31.7119 17.6532C29.3321 15.9866 25.6286 14 21.5 14C17.3714 14 13.6678 15.9865 11.2881 17.6532C8.71835 19.4527 7.14135 21.2253 7.07544 21.2999C6.97486 21.4139 6.97486 21.5862 7.07544 21.7001C7.14126 21.7746 8.71832 23.5473 11.2881 25.3468C13.668 27.0134 17.3714 29 21.5 29ZM35.2985 21.5001C34.8104 22.0157 33.3867 23.4469 31.3636 24.8616C29.0557 26.4758 25.4711 28.3999 21.5 28.3999C17.5289 28.3999 13.9443 26.4758 11.6367 24.8616C9.61358 23.4467 8.19003 22.0155 7.70172 21.5001C8.1899 20.9847 9.61369 19.5534 11.6367 18.1384C13.9445 16.5243 17.5292 14.6001 21.5 14.6001C25.4708 14.6001 29.0557 16.5242 31.3636 18.1384C33.3867 19.5532 34.8102 20.9846 35.2985 21.4999V21.5001Z" fill="black"/>
<path d="M31.7119 25.3468L31.1382 24.5277L31.1383 24.5277L31.7119 25.3468ZM35.9246 21.7001L35.1751 21.0381L35.1751 21.038L35.9246 21.7001ZM35.9246 21.2999L36.6737 20.6375L36.674 20.6378L35.9246 21.2999ZM31.7119 17.6532L31.1383 18.4723L31.1382 18.4723L31.7119 17.6532ZM11.2881 17.6532L11.8618 18.4723L11.8617 18.4723L11.2881 17.6532ZM7.07544 21.2999L6.32572 20.6382L6.32595 20.6379L7.07544 21.2999ZM7.07544 21.7001L7.82487 21.038L7.82506 21.0382L7.07544 21.7001ZM11.2881 25.3468L11.8617 24.5277L11.8617 24.5277L11.2881 25.3468ZM35.2985 21.5001H36.2985V21.8985L36.0246 22.1877L35.2985 21.5001ZM31.3636 24.8616L30.7905 24.0422L30.7905 24.0421L31.3636 24.8616ZM11.6367 24.8616L12.2098 24.0422L12.2098 24.0422L11.6367 24.8616ZM7.70172 21.5001L6.97585 22.188L6.32422 21.5003L6.97569 20.8125L7.70172 21.5001ZM11.6367 18.1384L11.0635 17.319L11.0635 17.3189L11.6367 18.1384ZM31.3636 18.1384L30.7905 18.9579L30.7905 18.9578L31.3636 18.1384ZM35.2985 21.4999L36.0244 20.8121L36.2985 21.1013V21.4999H35.2985ZM21.5 28C25.3262 28 28.8241 26.1484 31.1382 24.5277L32.2855 26.1659C29.8402 27.8785 25.9309 30 21.5 30V28ZM31.1383 24.5277C33.6203 22.7896 35.1387 21.0793 35.1751 21.0381L36.674 22.3621C36.5786 22.4701 34.943 24.305 32.2855 26.1659L31.1383 24.5277ZM35.1751 21.038C34.9416 21.3023 34.9416 21.6977 35.1751 21.962L36.674 20.6378C37.1087 21.1299 37.1087 21.8701 36.674 22.3622L35.1751 21.038ZM35.1754 21.9623C35.1386 21.9207 33.6203 20.2104 31.1383 18.4723L32.2855 16.8341C34.9431 18.6951 36.5787 20.53 36.6737 20.6375L35.1754 21.9623ZM31.1382 18.4723C28.824 16.8516 25.3262 15 21.5 15V13C25.9309 13 29.8401 15.1215 32.2855 16.8341L31.1382 18.4723ZM21.5 15C17.6738 15 14.1759 16.8516 11.8618 18.4723L10.7145 16.8341C13.1598 15.1215 17.0691 13 21.5 13V15ZM11.8617 18.4723C9.37966 20.2104 7.86133 21.9207 7.82492 21.9619L6.32595 20.6379C6.42137 20.5299 8.05703 18.695 10.7145 16.8341L11.8617 18.4723ZM7.82515 21.9617C8.05814 21.6977 8.05852 21.3025 7.82487 21.038L6.32601 22.3622C5.89119 21.87 5.89157 21.13 6.32572 20.6382L7.82515 21.9617ZM7.82506 21.0382C7.86122 21.0792 9.3796 22.7895 11.8617 24.5277L10.7145 26.1659C8.05704 24.305 6.42129 22.4701 6.32581 22.3619L7.82506 21.0382ZM11.8617 24.5277C14.1761 26.1484 17.6738 28 21.5 28V30C17.0691 30 13.16 27.8784 10.7145 26.1659L11.8617 24.5277ZM36.0246 22.1877C35.5084 22.7329 34.0333 24.2149 31.9367 25.6811L30.7905 24.0421C32.74 22.6788 34.1123 21.2984 34.5724 20.8126L36.0246 22.1877ZM31.9368 25.6811C29.565 27.34 25.7743 29.3999 21.5 29.3999V27.3999C25.1679 27.3999 28.5465 25.6117 30.7905 24.0422L31.9368 25.6811ZM21.5 29.3999C17.2257 29.3999 13.4351 27.34 11.0635 25.6811L12.2098 24.0422C14.4536 25.6117 17.8321 27.3999 21.5 27.3999V29.3999ZM11.0635 25.6811C8.96685 24.2147 7.49199 22.7327 6.97585 22.188L8.42759 20.8123C8.88806 21.2982 10.2603 22.6787 12.2098 24.0422L11.0635 25.6811ZM6.97569 20.8125C7.49188 20.2675 8.96698 18.7854 11.0635 17.319L12.2098 18.9578C10.2604 20.3214 8.88792 21.702 8.42775 22.1878L6.97569 20.8125ZM11.0635 17.3189C13.4353 15.6601 17.2259 13.6001 21.5 13.6001V15.6001C17.8324 15.6001 14.4538 17.3884 12.2098 18.9579L11.0635 17.3189ZM21.5 13.6001C25.7741 13.6001 29.5649 15.66 31.9368 17.3189L30.7905 18.9578C28.5465 17.3883 25.1676 15.6001 21.5 15.6001V13.6001ZM31.9367 17.3189C34.0334 18.7853 35.5083 20.2674 36.0244 20.8121L34.5727 22.1877C34.1122 21.7018 32.7399 20.3212 30.7905 18.9579L31.9367 17.3189ZM36.2985 21.4999V21.5001H34.2985V21.4999H36.2985Z" fill="black" mask="url(#path-2-inside-1_234_302)"/>
<mask id="path-4-inside-2_234_302" fill="white">
<path d="M21.0858 28.1663C24.7409 28.1663 27.7144 25.1757 27.7144 21.4997C27.7144 17.8236 24.7409 14.833 21.0858 14.833C17.4307 14.833 14.4572 17.8236 14.4572 21.4997C14.4572 25.1757 17.4307 28.1663 21.0858 28.1663ZM21.0858 15.3664C24.4483 15.3664 27.184 18.1178 27.184 21.4997C27.184 24.8815 24.4483 27.6329 21.0858 27.6329C17.7232 27.6329 14.9876 24.8815 14.9876 21.4997C14.9876 18.1178 17.7232 15.3664 21.0858 15.3664Z"/>
</mask>
<path d="M21.0858 28.1663C24.7409 28.1663 27.7144 25.1757 27.7144 21.4997C27.7144 17.8236 24.7409 14.833 21.0858 14.833C17.4307 14.833 14.4572 17.8236 14.4572 21.4997C14.4572 25.1757 17.4307 28.1663 21.0858 28.1663ZM21.0858 15.3664C24.4483 15.3664 27.184 18.1178 27.184 21.4997C27.184 24.8815 24.4483 27.6329 21.0858 27.6329C17.7232 27.6329 14.9876 24.8815 14.9876 21.4997C14.9876 18.1178 17.7232 15.3664 21.0858 15.3664Z" fill="black"/>
<path d="M21.0858 27.1663C24.1832 27.1663 26.7144 24.6289 26.7144 21.4997H28.7144C28.7144 25.7226 25.2985 29.1663 21.0858 29.1663V27.1663ZM26.7144 21.4997C26.7144 18.3705 24.1832 15.833 21.0858 15.833V13.833C25.2985 13.833 28.7144 17.2767 28.7144 21.4997H26.7144ZM21.0858 15.833C17.9884 15.833 15.4572 18.3705 15.4572 21.4997H13.4572C13.4572 17.2767 16.873 13.833 21.0858 13.833V15.833ZM15.4572 21.4997C15.4572 24.6289 17.9884 27.1663 21.0858 27.1663V29.1663C16.873 29.1663 13.4572 25.7226 13.4572 21.4997H15.4572ZM21.0858 14.3664C25.006 14.3664 28.184 17.5709 28.184 21.4997H26.184C26.184 18.6647 23.8906 16.3664 21.0858 16.3664V14.3664ZM28.184 21.4997C28.184 25.4284 25.006 28.6329 21.0858 28.6329V26.6329C23.8906 26.6329 26.184 24.3347 26.184 21.4997H28.184ZM21.0858 28.6329C17.1656 28.6329 13.9876 25.4284 13.9876 21.4997H15.9876C15.9876 24.3347 18.2809 26.6329 21.0858 26.6329V28.6329ZM13.9876 21.4997C13.9876 17.5709 17.1656 14.3664 21.0858 14.3664V16.3664C18.2809 16.3664 15.9876 18.6647 15.9876 21.4997H13.9876Z" fill="black" mask="url(#path-4-inside-2_234_302)"/>
<circle cx="21" cy="22" r="2.5" fill="black" stroke="black"/>
</svg>
