<svg width="29" height="23" viewBox="0 0 29 23" fill="none" xmlns="http://www.w3.org/2000/svg">
<path d="M28.0043 11.2489L28.0043 11.2489C27.94 11.177 26.4659 9.53996 24.0645 7.87833C21.8422 6.34045 18.3737 4.49961 14.5 4.49961C10.6263 4.49961 7.15771 6.34041 4.93548 7.87833C2.53416 9.53991 1.06003 11.1769 0.99568 11.2489L0.995655 11.2489C0.868137 11.3917 0.86809 11.6076 0.995665 11.7503C0.995672 11.7503 0.995678 11.7503 0.995686 11.7503L1.07023 11.6837C1.13151 11.7523 2.59982 13.3831 4.99238 15.0387C7.20816 16.572 10.6562 18.3996 14.5 18.3996C18.3438 18.3996 21.792 16.572 24.0076 15.0387L28.0043 11.2489ZM28.0043 11.2489C28.1319 11.3916 28.1319 11.6076 28.0043 11.7503H28.0043L28.0043 11.2489ZM23.6265 14.5101L23.6265 14.51C25.4178 13.2722 26.7024 12.0206 27.2081 11.4996C26.7022 10.9788 25.4177 9.72707 23.6265 8.48919L23.6265 8.48919C21.4842 7.00857 18.167 5.2517 14.5 5.2517C10.833 5.2517 7.51599 7.00867 5.37374 8.48919C3.58272 9.72713 2.2981 10.9788 1.7923 11.4997C2.2982 12.0206 3.58264 13.2722 5.37374 14.51L5.31922 14.5889L5.37374 14.5101C7.5158 15.9907 10.8328 17.7475 14.5 17.7475C18.1672 17.7475 21.4842 15.9907 23.6265 14.5101Z" fill="black" stroke="black" stroke-width="0.2"/>
<path d="M14.5001 17.9033C18.2244 17.9038 20.8975 14.9986 20.8975 11.6167C20.8975 8.23467 18.3331 5.27441 14.5001 5.27441C10.667 5.27441 8.17292 8.23467 8.17292 11.6167C8.17292 14.9986 10.7761 17.9029 14.5001 17.9033ZM14.5001 5.97406C18.0514 5.97406 20.1777 8.50534 20.1777 11.6167C20.1777 14.728 17.4539 17.1469 14.5001 17.2593C11.3694 17.2593 8.82244 14.728 8.82244 11.6167C8.82244 8.50534 11.3694 5.97406 14.5001 5.97406Z" fill="black"/>
<path d="M17 11.541C17 12.9217 15.8807 14.041 14.5 14.041C13.1193 14.041 12 12.9217 12 11.541C12 10.1603 13.1193 9.04102 14.5 9.04102C15.8807 9.04102 17 10.1603 17 11.541Z" fill="black" stroke="black"/>
</svg>
